<svg width="24" height="24" viewBox="0 0 24 24" xmlns="http://www.w3.org/2000/svg">
  <defs>
    <linearGradient id="metalGrad" x1="0%" y1="0%" x2="100%" y2="100%">
      <stop offset="0%" style="stop-color:#e8e8e8;stop-opacity:1" />
      <stop offset="50%" style="stop-color:#c0c0c0;stop-opacity:1" />
      <stop offset="100%" style="stop-color:#a0a0a0;stop-opacity:1" />
    </linearGradient>
    <linearGradient id="baseGrad" x1="0%" y1="0%" x2="100%" y2="100%">
      <stop offset="0%" style="stop-color:#606060;stop-opacity:1" />
      <stop offset="50%" style="stop-color:#404040;stop-opacity:1" />
      <stop offset="100%" style="stop-color:#303030;stop-opacity:1" />
    </linearGradient>
  </defs>
  
  <!-- Base supports -->
  <rect x="2" y="16" width="5" height="6" rx="1" fill="url(#baseGrad)" stroke="#202020" stroke-width="0.3"/>
  <rect x="17" y="16" width="5" height="6" rx="1" fill="url(#baseGrad)" stroke="#202020" stroke-width="0.3"/>
  
  <!-- Vertical support posts -->
  <rect x="4" y="6" width="1.5" height="12" rx="0.3" fill="url(#metalGrad)" stroke="#808080" stroke-width="0.2"/>
  <rect x="18.5" y="6" width="1.5" height="12" rx="0.3" fill="url(#metalGrad)" stroke="#808080" stroke-width="0.2"/>
  
  <!-- Left parallel bar -->
  <rect x="3" y="8" width="18" height="1.2" rx="0.6" fill="url(#metalGrad)" stroke="#808080" stroke-width="0.3"/>
  
  <!-- Right parallel bar -->
  <rect x="3" y="12" width="18" height="1.2" rx="0.6" fill="url(#metalGrad)" stroke="#808080" stroke-width="0.3"/>
  
  <!-- Cross support bars -->
  <rect x="4.5" y="14.5" width="15" height="0.8" rx="0.4" fill="url(#baseGrad)" stroke="#404040" stroke-width="0.2"/>
  
  <!-- Grip texture marks on bars -->
  <g opacity="0.6" stroke="#909090" stroke-width="0.15">
    <line x1="7" y1="8.3" x2="7" y2="8.9"/>
    <line x1="9" y1="8.3" x2="9" y2="8.9"/>
    <line x1="11" y1="8.3" x2="11" y2="8.9"/>
    <line x1="13" y1="8.3" x2="13" y2="8.9"/>
    <line x1="15" y1="8.3" x2="15" y2="8.9"/>
    <line x1="17" y1="8.3" x2="17" y2="8.9"/>
    
    <line x1="7" y1="12.3" x2="7" y2="12.9"/>
    <line x1="9" y1="12.3" x2="9" y2="12.9"/>
    <line x1="11" y1="12.3" x2="11" y2="12.9"/>
    <line x1="13" y1="12.3" x2="13" y2="12.9"/>
    <line x1="15" y1="12.3" x2="15" y2="12.9"/>
    <line x1="17" y1="12.3" x2="17" y2="12.9"/>
  </g>
  
  <!-- Base stability feet -->
  <ellipse cx="4.5" cy="22.2" rx="2" ry="0.8" fill="#404040" opacity="0.7"/>
  <ellipse cx="19.5" cy="22.2" rx="2" ry="0.8" fill="#404040" opacity="0.7"/>
</svg>
